<svg version="1.1" id="Layer_1" xmlns="http://www.w3.org/2000/svg" xmlns:xlink="http://www.w3.org/1999/xlink" x="0px" y="0px" viewBox="0 0 500 500" style="width: 166px;" xml:space="preserve" data-imageid="the-great-pyramid-82" imageName="The Great Pyramid" class="illustrations_image">
<style type="text/css">
	.st0_the-great-pyramid-82{fill:#FFFFFF;}
	.st1_the-great-pyramid-82{fill:#093F68;}
	.st2_the-great-pyramid-82{fill:#68E1FD;}
	.st3_the-great-pyramid-82{fill:#FFBC0E;}
	.st4_the-great-pyramid-82{fill:#DFEAEF;}
</style>
<g id="circle_the-great-pyramid-82">
	<path class="st0_the-great-pyramid-82" d="M427.4,250c0,11.2-1,22.3-3.1,33.3c-1,5.4-2.3,10.7-3.8,15.9c-1.4,5-3.1,9.9-5,14.8c-2.3,6.1-5,12-8,17.8&#10;&#9;&#9;C362.3,419,255,453.1,167.7,407.9c-32.6-16.9-59.2-43.5-76.1-76.1c-1.1-2.1-2.1-4.2-3.1-6.3c-6.9-14.6-11.7-30.1-14.4-46.1&#10;&#9;&#9;C58,182.5,123.3,90.8,220.2,74.6S408.8,123.8,425,220.7C426.6,230.4,427.4,240.2,427.4,250z"/>
	<path class="st1_the-great-pyramid-82" d="M249.6,429.7c-67.2,0.1-128.8-37.4-159.6-97.1c-1.1-2.1-2.1-4.1-3.1-6.4c-7-14.8-11.9-30.5-14.6-46.6&#10;&#9;&#9;c-1.6-9.8-2.4-19.7-2.5-29.7c0-99.1,80.6-179.7,179.7-179.7S429.3,150.9,429.3,250c0,11.3-1.1,22.6-3.2,33.7&#10;&#9;&#9;c-1,5.2-2.2,10.6-3.8,16c-1.5,5.1-3.1,10.1-5,14.9C390.6,384,323.9,429.7,249.6,429.7z M249.6,74c-97,0-175.9,78.9-175.9,176&#10;&#9;&#9;c0,9.7,0.8,19.4,2.4,29c2.6,15.8,7.4,31.1,14.2,45.6c1,2.2,2,4.2,3.1,6.2C138,417.2,244.2,451,330.5,406.3&#10;&#9;&#9;c38.2-19.8,67.8-52.9,83.3-93c1.8-4.7,3.5-9.6,4.9-14.6c1.5-5.3,2.8-10.6,3.7-15.7c2.1-10.9,3.1-21.9,3.1-33&#10;&#9;&#9;C425.5,153,346.6,74.1,249.6,74L249.6,74z"/>
</g>
<g id="building_the-great-pyramid-82">
	<polyline class="st2_the-great-pyramid-82 targetColor" points="91.6,331.8 112.8,331.8 192.1,331.8 228.7,331.8 202.1,302.4 168,264.8 152.6,247.8 125.2,217.5 &#10;&#9;&#9;88.5,325.5 &#9;" style="fill: rgb(104, 225, 253);"/>
	<path class="st1_the-great-pyramid-82" d="M228.7,333.7H91.6c-1-0.1-1.8-1-1.8-2c0.1-0.9,0.8-1.7,1.8-1.8h132.8l-98.5-108.7L90.3,326.1&#10;&#9;&#9;c-0.4,1-1.5,1.4-2.5,1c-0.9-0.4-1.4-1.3-1.1-2.2l36.7-108c0.3-1,1.4-1.5,2.4-1.2c0.3,0.1,0.6,0.3,0.8,0.5l103.5,114.3&#10;&#9;&#9;c0.7,0.8,0.6,2-0.1,2.7C229.7,333.5,229.2,333.7,228.7,333.7L228.7,333.7z"/>
	<path class="st1_the-great-pyramid-82" d="M125.2,217.5l-36.6,108c-6.9-14.6-11.7-30.1-14.4-46.1L125.2,217.5z"/>
	<path class="st1_the-great-pyramid-82" d="M88.5,327.4c-0.7,0-1.4-0.4-1.7-1.1c-7-14.8-11.8-30.5-14.5-46.6c-0.1-0.5,0.1-1.1,0.4-1.5l51-61.9&#10;&#9;&#9;c0.7-0.8,1.9-0.9,2.7-0.2c0.6,0.5,0.8,1.3,0.6,2l-36.7,108C90.1,326.9,89.4,327.4,88.5,327.4L88.5,327.4z M76.2,279.9&#10;&#9;&#9;c2.4,13.9,6.4,27.5,12.1,40.4l31.8-93.6L76.2,279.9z"/>
	<path class="st1_the-great-pyramid-82" d="M152.6,249.6h-25.9c-1-0.1-1.8-1-1.8-2c0.1-0.9,0.8-1.7,1.8-1.8h25.9c1-0.1,2,0.7,2,1.8c0.1,1-0.7,2-1.8,2&#10;&#9;&#9;C152.7,249.6,152.7,249.6,152.6,249.6z"/>
	<path class="st1_the-great-pyramid-82" d="M133.4,262.8h-20.6c-1-0.1-1.8-1-1.8-2c0.1-0.9,0.8-1.7,1.8-1.8h20.6c1,0.1,1.8,1,1.8,2&#10;&#9;&#9;C135,262,134.3,262.7,133.4,262.8z"/>
	<path class="st1_the-great-pyramid-82" d="M152.6,271.7h-29.5c-1-0.1-1.8-1-1.8-2c0.1-0.9,0.8-1.7,1.8-1.8h29.5c1-0.1,2,0.7,2,1.8c0.1,1-0.7,2-1.8,2&#10;&#9;&#9;C152.7,271.7,152.7,271.7,152.6,271.7z"/>
	<path class="st1_the-great-pyramid-82" d="M133.4,287h-20.6c-1-0.1-1.8-1-1.8-2c0.1-0.9,0.8-1.7,1.8-1.8h20.6c1,0.1,1.8,1,1.8,2&#10;&#9;&#9;C135,286.2,134.3,286.9,133.4,287z"/>
	<path class="st1_the-great-pyramid-82" d="M123.1,306.3H98.4c-1,0.1-2-0.7-2-1.8c-0.1-1,0.7-2,1.8-2c0.1,0,0.2,0,0.3,0h24.7c1,0.1,1.8,1,1.8,2&#10;&#9;&#9;C124.8,305.5,124,306.2,123.1,306.3z"/>
	<path class="st1_the-great-pyramid-82" d="M139.6,320.8h-37.5c-1,0.1-2-0.7-2-1.8c-0.1-1,0.7-2,1.8-2c0.1,0,0.2,0,0.3,0h37.5c1-0.1,2,0.7,2,1.8&#10;&#9;&#9;c0.1,1-0.7,2-1.8,2C139.8,320.8,139.7,320.8,139.6,320.8z"/>
	<path class="st1_the-great-pyramid-82" d="M148.2,296.3h-23c-1-0.1-1.8-1-1.8-2c0.1-0.9,0.8-1.7,1.8-1.8h23c1,0.1,1.8,1,1.8,2&#10;&#9;&#9;C149.9,295.4,149.2,296.2,148.2,296.3z"/>
	<path class="st2_the-great-pyramid-82 targetColor" d="M424.3,283.3c-1,5.4-2.3,10.7-3.8,15.9c-1.4,5-3.1,9.9-5,14.8c-2.3,6.1-5,12-8,17.8h-81.7l9.3-27.4l9.8-28.8&#10;&#9;&#9;l19.7-58.1L424.3,283.3z" style="fill: rgb(104, 225, 253);"/>
	<path class="st1_the-great-pyramid-82" d="M407.5,333.7h-81.7c-0.6,0-1.2-0.3-1.5-0.8c-0.4-0.5-0.5-1.1-0.2-1.7l38.8-114.3c0.3-1,1.4-1.5,2.4-1.2&#10;&#9;&#9;c0.3,0.1,0.6,0.3,0.8,0.5l59.6,65.8c0.4,0.4,0.6,1,0.5,1.6c-1,5.2-2.2,10.6-3.8,16c-1.5,5.1-3.1,10.1-5,14.9&#10;&#9;&#9;c-2.4,6.1-5.1,12.2-8.1,18C408.9,333.3,408.2,333.7,407.5,333.7z M328.5,329.9h77.9c2.8-5.4,5.2-10.9,7.4-16.6&#10;&#9;&#9;c1.8-4.7,3.5-9.6,4.9-14.6s2.6-9.9,3.5-14.8l-56.8-62.7L328.5,329.9z"/>
	<polygon class="st1_the-great-pyramid-82" points="325.9,331.8 270.5,331.8 364.6,217.5 &#9;"/>
	<path class="st1_the-great-pyramid-82" d="M325.9,333.7h-55.4c-1,0-1.9-0.8-1.9-1.9c0-0.4,0.2-0.9,0.4-1.2l94.2-114.3c0.7-0.8,1.8-0.9,2.7-0.3&#10;&#9;&#9;c0.6,0.5,0.9,1.3,0.6,2.1l-38.8,114.3C327.4,333.2,326.7,333.7,325.9,333.7z M274.5,329.9h50l35-103.2L274.5,329.9z"/>
	<polygon class="st2_the-great-pyramid-82 targetColor" points="192.1,331.8 247.6,168.2 395.8,331.8 &#9;" style="fill: rgb(104, 225, 253);"/>
	<path class="st1_the-great-pyramid-82" d="M395.8,333.7H192.1c-1,0-1.9-0.9-1.9-1.9c0-0.2,0-0.4,0.1-0.6l55.5-163.6c0.3-1,1.4-1.5,2.4-1.2&#10;&#9;&#9;c0.3,0.1,0.6,0.3,0.8,0.5l148.2,163.6c0.7,0.8,0.6,2-0.1,2.7C396.8,333.5,396.3,333.7,395.8,333.7z M194.7,329.9h196.8l-143.2-158&#10;&#9;&#9;L194.7,329.9z"/>
	<polygon class="st1_the-great-pyramid-82" points="192.1,331.8 112.8,331.8 247.6,168.2 &#9;"/>
	<path class="st1_the-great-pyramid-82" d="M192.1,333.7h-79.3c-1,0-1.9-0.9-1.9-1.9c0-0.4,0.2-0.9,0.4-1.2L246.2,167c0.7-0.8,1.9-0.9,2.7-0.3&#10;&#9;&#9;c0.6,0.5,0.8,1.3,0.6,2.1l-55.5,163.6C193.6,333.2,192.9,333.7,192.1,333.7z M116.8,329.9h73.9l51.8-152.5L116.8,329.9z"/>
	<path class="st1_the-great-pyramid-82" d="M288.8,215.6h-23.4c-1-0.1-1.8-1-1.8-2c0.1-0.9,0.8-1.7,1.8-1.8h23.4c1-0.1,2,0.7,2,1.8c0.1,1-0.7,2-1.8,2&#10;&#9;&#9;C289,215.6,288.9,215.6,288.8,215.6z"/>
	<path class="st1_the-great-pyramid-82" d="M281.1,227.1h-38.5c-1-0.1-1.8-1-1.8-2c0.1-0.9,0.8-1.7,1.8-1.8h38.5c1,0.1,1.8,1,1.8,2&#10;&#9;&#9;C282.8,226.3,282.1,227,281.1,227.1z"/>
	<path class="st1_the-great-pyramid-82" d="M301.2,237.5h-48.1c-1-0.1-1.8-1-1.8-2c0.1-0.9,0.8-1.7,1.8-1.8h48.1c1,0.1,1.8,1,1.8,2&#10;&#9;&#9;C302.8,236.7,302.1,237.5,301.2,237.5z"/>
	<path class="st1_the-great-pyramid-82" d="M265.5,248.9h-30.2c-1,0.1-2-0.7-2-1.8c-0.1-1,0.7-2,1.8-2c0.1,0,0.2,0,0.3,0h30.2c1-0.1,2,0.7,2,1.8&#10;&#9;&#9;c0.1,1-0.7,2-1.8,2C265.6,248.9,265.6,248.9,265.5,248.9z"/>
	<path class="st1_the-great-pyramid-82" d="M307.6,256.4h-42.1c-1-0.1-1.8-1-1.8-2c0.1-0.9,0.8-1.7,1.8-1.8h42.1c1-0.1,2,0.7,2,1.8c0.1,1-0.7,2-1.8,2&#10;&#9;&#9;C307.8,256.4,307.7,256.4,307.6,256.4z"/>
	<path class="st1_the-great-pyramid-82" d="M286.5,274.2h-53.3c-1-0.1-1.8-1-1.8-2c0.1-0.9,0.8-1.7,1.8-1.8h53.3c1-0.1,2,0.7,2,1.8c0.1,1-0.7,2-1.8,2&#10;&#9;&#9;C286.7,274.2,286.6,274.2,286.5,274.2z"/>
	<path class="st1_the-great-pyramid-82" d="M331.2,284.4H284c-1-0.1-1.8-1-1.8-2c0.1-0.9,0.8-1.7,1.8-1.8h47.1c1-0.1,2,0.7,2,1.8c0.1,1-0.7,2-1.8,2&#10;&#9;&#9;C331.3,284.4,331.2,284.4,331.2,284.4L331.2,284.4z"/>
	<path class="st1_the-great-pyramid-82" d="M299.6,294h-54c-1-0.1-1.8-1-1.8-2c0.1-0.9,0.8-1.7,1.8-1.8h54c1,0.1,1.8,1,1.8,2&#10;&#9;&#9;C301.3,293.2,300.6,293.9,299.6,294z"/>
	<path class="st1_the-great-pyramid-82" d="M356.7,306.3h-86.2c-1,0.1-2-0.7-2-1.8c-0.1-1,0.7-2,1.8-2c0.1,0,0.2,0,0.3,0h86.2c1-0.1,2,0.7,2,1.8&#10;&#9;&#9;c0.1,1-0.7,2-1.8,2C356.9,306.3,356.8,306.3,356.7,306.3z"/>
	<path class="st1_the-great-pyramid-82" d="M302.4,318.9h-64c-1-0.1-1.8-1-1.8-2c0.1-0.9,0.8-1.7,1.8-1.8h64c1-0.1,2,0.7,2,1.8c0.1,1-0.7,2-1.8,2&#10;&#9;&#9;C302.6,318.9,302.5,318.9,302.4,318.9z"/>
	<path class="st1_the-great-pyramid-82" d="M259.9,199.2h-17.2c-1-0.1-1.8-1-1.8-2c0.1-0.9,0.8-1.7,1.8-1.8h17.2c1,0.1,1.8,1,1.8,2&#10;&#9;&#9;C261.6,198.4,260.8,199.2,259.9,199.2z"/>
	<path class="st1_the-great-pyramid-82" d="M366.5,318.9h-26.8c-1,0.1-2-0.7-2-1.8c-0.1-1,0.7-2,1.8-2c0.1,0,0.2,0,0.3,0h26.8c1,0.1,1.8,1,1.8,2&#10;&#9;&#9;C368.2,318.1,367.4,318.9,366.5,318.9z"/>
	<path class="st1_the-great-pyramid-82" d="M370.9,243.1h-11.1c-1,0.1-2-0.7-2-1.8c-0.1-1,0.7-2,1.8-2c0.1,0,0.2,0,0.3,0h11.1c1,0.1,1.8,1,1.8,2&#10;&#9;&#9;C372.6,242.3,371.9,243,370.9,243.1z"/>
	<path class="st1_the-great-pyramid-82" d="M389.9,254.6h-24.5c-1-0.1-1.8-1-1.8-2c0.1-0.9,0.8-1.7,1.8-1.8h24.5c1,0.1,1.8,1,1.8,2&#10;&#9;&#9;C391.6,253.8,390.8,254.6,389.9,254.6z"/>
	<path class="st1_the-great-pyramid-82" d="M387.3,267.3h-34.2c-1-0.1-1.8-1-1.8-2c0.1-0.9,0.8-1.7,1.8-1.8h34.2c1,0.1,1.8,1,1.8,2&#10;&#9;&#9;C389,266.4,388.2,267.2,387.3,267.3L387.3,267.3z"/>
	<path class="st1_the-great-pyramid-82" d="M410.3,279.2h-43.9c-1,0.1-2-0.7-2-1.8c-0.1-1,0.7-2,1.8-2c0.1,0,0.2,0,0.3,0h43.9c1,0.1,1.8,1,1.8,2&#10;&#9;&#9;C412,278.3,411.3,279.1,410.3,279.2z"/>
	<path class="st1_the-great-pyramid-82" d="M404.6,292.5h-29.4c-1,0.1-2-0.7-2-1.8c-0.1-1,0.7-2,1.8-2c0.1,0,0.2,0,0.3,0h29.4c1,0.1,1.8,1,1.8,2&#10;&#9;&#9;C406.3,291.7,405.5,292.5,404.6,292.5z"/>
	<path class="st1_the-great-pyramid-82" d="M420.5,301.1h-20.2c-1,0.1-2-0.7-2-1.8c-0.1-1,0.7-2,1.8-2c0.1,0,0.2,0,0.3,0h20.2c1-0.1,2,0.7,2,1.8&#10;&#9;&#9;c0.1,1-0.7,2-1.8,2C420.7,301.1,420.6,301.1,420.5,301.1z"/>
	<path class="st1_the-great-pyramid-82" d="M397,316c-1,0-1.9-0.8-1.9-1.9c0-0.8,0.5-1.6,1.3-1.8c0.4-0.1,1.1-0.4,19.1-0.2c1,0.1,1.8,1,1.8,2&#10;&#9;&#9;c-0.1,0.9-0.8,1.7-1.8,1.8l0,0c-12.1-0.1-17.3,0-18.1,0C397.3,316,397.2,316,397,316z"/>
</g>
<g id="sun_the-great-pyramid-82">
	<circle class="st3_the-great-pyramid-82" cx="327.8" cy="149.1" r="25.3"/>
	<path class="st1_the-great-pyramid-82" d="M327.8,176.3c-15,0-27.2-12.2-27.2-27.2c0-15,12.2-27.2,27.2-27.2c15,0,27.2,12.2,27.2,27.2&#10;&#9;&#9;C355,164.1,342.8,176.3,327.8,176.3z M327.8,125.6c-12.9,0-23.4,10.5-23.4,23.4c0,12.9,10.5,23.4,23.4,23.4&#10;&#9;&#9;c12.9,0,23.4-10.5,23.4-23.4l0,0C351.2,136.1,340.7,125.7,327.8,125.6z"/>
</g>
<g id="clouds_the-great-pyramid-82">
	<path class="st4_the-great-pyramid-82" d="M180.4,188.5h-43.6c-5.4,0-9.8-3.6-9.8-8c0-3.4,2.5-6.3,6.3-7.5c1.6-3,5-5.1,9-5.5c1.2-4.1,5.8-7.1,11.1-7.1&#10;&#9;&#9;c3.9-0.1,7.7,1.6,10.1,4.8c2.2-1,4.6-1.5,7-1.4c7.2,0,13.1,4,14.3,9.6c3.3,1.4,5.4,4.1,5.4,7.2&#10;&#9;&#9;C190.2,184.9,185.8,188.5,180.4,188.5z M143.7,171.1c-3.3,0-6.3,1.7-7.2,4.1c-0.2,0.6-0.7,1-1.4,1.2c-2.5,0.6-4.3,2.2-4.3,4&#10;&#9;&#9;c0,2.3,2.8,4.2,6,4.2h43.6c3.3,0,6-1.9,6-4.2c0-1.7-1.5-3.3-3.8-3.9c-0.7-0.2-1.3-0.9-1.4-1.6c-0.4-4.2-5.1-7.4-10.8-7.4&#10;&#9;&#9;c-2.4,0-4.8,0.6-6.8,1.8c-0.5,0.3-1.1,0.3-1.6,0.2c-0.5-0.2-1-0.6-1.1-1.1c-0.9-2.5-3.9-4.2-7.4-4.2c-4,0-7.4,2.4-7.7,5.2&#10;&#9;&#9;C145.7,170.4,144.8,171.2,143.7,171.1C143.7,171.1,143.7,171.1,143.7,171.1z"/>
	<path class="st4_the-great-pyramid-82" d="M165.9,176.3c-0.9,0-1.7-0.7-1.9-1.6c-0.3-1.6-1.2-3-2.6-3.9c-1.4-0.8-3.2-0.9-5.5-0.2c-1,0.3-2.1-0.2-2.4-1.2&#10;&#9;&#9;c-0.3-1,0.2-2.1,1.2-2.4l0,0c3.4-1.1,6.3-0.9,8.6,0.6c2.2,1.5,3.8,3.9,4.3,6.5c0.2,1-0.5,2-1.6,2.2L165.9,176.3z"/>
	<path class="st4_the-great-pyramid-82" d="M254.2,140.5h-53.1c-6.4,0-11.5-4.2-11.5-9.4c0-3.6,2.6-6.9,6.5-8.4c1.4-6.6,8.6-11.6,17.1-11.6&#10;&#9;&#9;c3,0,6,0.6,8.7,1.9c2.3-3.6,6.9-6,12.1-6c6.4,0,11.9,3.7,13.2,8.6c4.9,0.4,9.1,3,11,6.7c4.5,1.3,7.5,4.8,7.5,8.8&#10;&#9;&#9;C265.7,136.3,260.5,140.5,254.2,140.5z M213.2,114.9c-7.1,0-13,4.1-13.5,9.4c-0.1,0.8-0.6,1.4-1.4,1.7c-2.9,0.8-4.9,2.9-4.9,5.2&#10;&#9;&#9;c0,3.1,3.5,5.6,7.7,5.6h53.1c4.3,0,7.7-2.5,7.7-5.6c0-2.4-2.3-4.6-5.5-5.3c-0.6-0.1-1.1-0.6-1.4-1.2c-1.2-3.1-5.1-5.3-9.4-5.3&#10;&#9;&#9;c-1,0-1.8-0.8-1.9-1.8c-0.3-3.8-4.6-6.8-9.8-6.8c-4.4,0-8.3,2.2-9.5,5.4c-0.3,1-1.4,1.5-2.4,1.2c-0.1,0-0.2-0.1-0.3-0.2&#10;&#9;&#9;C219.1,115.7,216.2,114.9,213.2,114.9L213.2,114.9z"/>
	<path class="st4_the-great-pyramid-82" d="M215,124.7c-0.5,0-0.9-0.2-1.2-0.4c-0.8-0.7-0.9-1.9-0.2-2.7c9.3-10.8,19.3-3.4,19.4-3.3&#10;&#9;&#9;c0.8,0.7,0.8,1.9,0.1,2.7c-0.6,0.7-1.6,0.8-2.4,0.3c-0.7-0.6-7.4-5.1-14.2,2.8C216.1,124.5,215.6,124.7,215,124.7z"/>
</g>
<g id="sand_the-great-pyramid-82">
	<path class="st3_the-great-pyramid-82" d="M407.5,331.8C362.3,419,255,453.1,167.7,407.9c-32.6-16.9-59.2-43.5-76.1-76.1H407.5z"/>
	<path class="st1_the-great-pyramid-82" d="M249.6,429.7c-67.2,0.1-128.8-37.4-159.6-97.1c-0.5-0.9-0.1-2.1,0.8-2.6c0.3-0.1,0.6-0.2,0.9-0.2h315.9&#10;&#9;&#9;c1,0,1.9,0.8,1.9,1.9c0,0.3-0.1,0.6-0.2,0.9C378.4,392.4,316.8,429.9,249.6,429.7z M94.8,333.7c46.3,85.5,153,117.3,238.5,71.1&#10;&#9;&#9;c30.1-16.3,54.8-41,71.1-71.1H94.8z"/>
	<path class="st3_the-great-pyramid-82" d="M107.2,341.8c0,0,11.8-12.9,45.3-13.2c29-0.2,55,21.7,55,21.7"/>
	<path class="st1_the-great-pyramid-82" d="M207.5,352.2c-0.4,0-0.9-0.2-1.2-0.5c-0.2-0.2-25.5-21.2-53.3-21.2h-0.4c-32.1,0.2-43.9,12.4-44,12.5&#10;&#9;&#9;c-0.8,0.7-2,0.7-2.7,0c-0.7-0.7-0.7-1.8-0.1-2.5c0.5-0.5,12.8-13.5,46.7-13.8h0.5c29.2,0,54.7,21.2,55.8,22.1&#10;&#9;&#9;c0.8,0.7,0.9,1.9,0.2,2.7C208.6,352,208.1,352.2,207.5,352.2L207.5,352.2z"/>
	<path class="st1_the-great-pyramid-82" d="M289.1,389.1c-1,0-1.9-0.8-1.9-1.8c0-1,0.7-1.8,1.6-1.9c8.6-1.5,14.5-5,21.4-9.1c6.5-3.9,13.8-8.3,24.8-11.7&#10;&#9;&#9;c22.2-6.9,43.7,5.3,44.9,7.2c0.5,0.7,0.3,1.7-0.3,2.3c-0.7,0.7-1.9,0.7-2.7,0l-0.1-0.1c-2.5-1.9-21.2-11.8-40.7-5.8&#10;&#9;&#9;c-10.6,3.3-17.7,7.5-24,11.3c-6.9,4.1-13.3,8-22.7,9.6L289.1,389.1z"/>
	<path class="st1_the-great-pyramid-82" d="M277.1,389.1c-0.1,0-0.3,0-0.4,0l-9.5-2.1c-1-0.2-1.7-1.2-1.5-2.2s1.2-1.7,2.2-1.5l0,0l9.5,2&#10;&#9;&#9;c1,0.2,1.7,1.3,1.4,2.3C278.7,388.4,278,389,277.1,389.1L277.1,389.1z"/>
	<path class="st1_the-great-pyramid-82" d="M192.1,410.7c-1,0-1.9-0.8-1.9-1.9c0-0.8,0.5-1.5,1.2-1.8c1.2-0.5,11.5-4.4,16.3-3.9c1,0.1,1.8,1.1,1.7,2.1&#10;&#9;&#9;c-0.1,1-1.1,1.8-2.1,1.7c-2.9-0.4-10.4,2-14.5,3.6C192.6,410.7,192.3,410.7,192.1,410.7z"/>
</g>
</svg>